<svg xmlns="http://www.w3.org/2000/svg" viewBox="0 0 342.69 82.23"><defs><style>.cls-1{fill:#231815;}.cls-2{fill:#ffe100;}.cls-3{fill:#00aa71;}.cls-4{fill:#fff;}</style></defs><title>logo</title><g id="logo" data-name="logo"><path class="cls-1" d="M221.81,30.8,199.24,60.13c-1.46,1.36-.52,3.61,1.58,3.8l11.07,0a4.22,4.22,0,0,0,3.47-1.57l14.51-18.7,14.44,18.53c1,1.32,2.14,1.59,4.29,1.63h10.58a2,2,0,0,0,1.31-3.55L238.21,30.8l19.91,0a3,3,0,0,0-.2-5.83l-20.59,0V17.2a2.66,2.66,0,0,0-3.12-2.48h-8A2.75,2.75,0,0,0,223,17.2V25L200.87,25a2.94,2.94,0,0,0,.13,5.83Z"/><path class="cls-1" d="M302.1,16.43,286.43,24.7c-1.91.74-1.66,2.43-.35,2.53H293a1.8,1.8,0,0,0,1.74,1.92h37.66c1.22.12,2-.36,2-2l6.59.05c1.1.14,2.54-1.71,1.22-2.47l-18-8.38a16.73,16.73,0,0,0-3.83-1H305.61A9.46,9.46,0,0,0,302.1,16.43Z"/><path class="cls-1" d="M287.82,32.52V45.07l-6.73,16.46c-.8,1.35.6,2.7,2.32,2.44h8.06a3,3,0,0,0,3.23-2.2l2.31-6v5.76a2.75,2.75,0,0,0,3.32,2.35h36.06a2.8,2.8,0,0,0,3.4-2.35V50.25c-.25-1.63-1.81-2.46-3.52-2.54H300.13l0-2.16,36,0c3.2.11,3.63-1.24,3.54-3v-10a3.23,3.23,0,0,0-3.39-2.38h-45.6A3.61,3.61,0,0,0,287.82,32.52Z"/><path class="cls-1" d="M97.15,32.78l0-.17-.07-.17L97,32.3l-.11-.13-.15-.1L96.54,32l-.18,0-.2,0-.19,0-.18,0-.16.08-.14.1-.13.13-.09.14-.06.17,0,.17v3.39H92.7l-.19,0-.17.06-.16.09-.14.11-.11.13-.1.15,0,.16,0,.18,0,.18,0,.17.1.14.11.14.14.11.16.08.17.06.19,0h2.2a27.38,27.38,0,0,1-3.63,7.1l-.08.15,0,.17v.16l0,.17.06.16.09.15.13.13.15.11.17.08.18,0,.18,0,.19,0,.17,0,.17-.08.14-.1.13-.14a12.16,12.16,0,0,0,2.26-4v9.74l0,.18.06.16.09.14.13.13.14.1.16.08.18.05.19,0,.2,0,.18-.05.16-.08.15-.1.11-.13.1-.14.07-.16,0-.18V41.11l.26.27.24.28.25.28.23.29.24.28.23.29.23.29.23.29.12.11.13.09.15.06.16,0h.17l.16,0,.16-.06.15-.07.13-.11.11-.12.08-.13,0-.14,0-.15v-.15l-.05-.14-.07-.14-.39-.52-.4-.5-.41-.51-.42-.49-.43-.49L98,39.44,97.6,39l-.45-.47V38h1.71l.18,0,.17-.06.15-.09.13-.11.1-.13.08-.15.06-.16V36.9l-.06-.16-.08-.15-.1-.13-.13-.11-.15-.09L99,36.2l-.18,0H97.15Z"/><polygon class="cls-1" points="107.77 32.58 107.74 32.41 107.68 32.26 107.59 32.12 107.47 32.01 107.34 31.91 107.18 31.83 107.01 31.79 106.83 31.77 106.65 31.79 106.48 31.83 106.33 31.91 106.19 32.01 106.07 32.12 105.99 32.26 105.92 32.41 105.9 32.58 105.9 34.55 103.15 34.55 103.18 34.37 103.21 34.19 103.24 34 103.26 33.82 103.28 33.64 103.29 33.45 103.3 33.27 103.31 33.09 103.31 32.92 103.27 32.76 103.2 32.62 103.11 32.49 102.99 32.37 102.86 32.28 102.69 32.22 102.52 32.18 102.34 32.17 102.15 32.2 101.99 32.25 101.84 32.34 101.71 32.44 101.61 32.57 101.53 32.71 101.49 32.87 101.4 33.54 101.28 34.21 101.14 34.87 100.97 35.52 100.77 36.17 100.56 36.81 100.32 37.45 100.05 38.08 100.01 38.23 100 38.38 100.02 38.53 100.08 38.67 100.16 38.8 100.27 38.92 100.39 39.02 100.53 39.09 100.69 39.15 100.86 39.18 101.03 39.18 101.19 39.15 101.34 39.09 101.48 39.02 101.61 38.92 101.7 38.79 101.87 38.5 102.02 38.2 102.16 37.9 102.29 37.59 102.41 37.27 102.52 36.96 102.62 36.64 102.71 36.32 105.9 36.32 105.9 40 101.11 40 100.92 40.02 100.75 40.07 100.59 40.16 100.45 40.27 100.34 40.4 100.25 40.54 100.2 40.71 100.18 40.88 100.2 41.06 100.25 41.22 100.34 41.37 100.45 41.5 100.59 41.6 100.75 41.69 100.92 41.74 101.11 41.76 105.57 41.76 104.97 42.82 104.31 43.84 103.56 44.8 102.74 45.72 101.87 46.58 100.93 47.4 99.94 48.17 98.9 48.88 98.76 48.99 98.67 49.13 98.61 49.28 98.59 49.45 98.61 49.62 98.65 49.78 98.73 49.95 98.83 50.09 98.96 50.22 99.1 50.32 99.26 50.4 99.44 50.45 99.61 50.47 99.79 50.46 99.96 50.42 100.13 50.34 100.97 49.8 101.79 49.21 102.57 48.59 103.31 47.92 104.02 47.22 104.68 46.49 105.31 45.73 105.9 44.94 105.9 51.76 105.91 51.93 105.97 52.09 106.06 52.24 106.17 52.37 106.31 52.47 106.47 52.55 106.64 52.6 106.83 52.62 107.02 52.6 107.19 52.55 107.35 52.47 107.49 52.37 107.6 52.24 107.69 52.09 107.75 51.93 107.77 51.76 107.77 45 108.3 45.76 108.87 46.51 109.47 47.23 110.1 47.93 110.76 48.61 111.44 49.26 112.17 49.88 112.92 50.48 113.09 50.58 113.28 50.64 113.48 50.66 113.68 50.65 113.87 50.61 114.06 50.53 114.22 50.42 114.37 50.28 114.48 50.12 114.55 49.95 114.59 49.77 114.59 49.59 114.55 49.41 114.48 49.24 114.37 49.08 114.22 48.94 113.29 48.18 112.4 47.38 111.55 46.53 110.76 45.65 110.01 44.73 109.32 43.77 108.68 42.79 108.1 41.76 112.93 41.76 113.06 41.76 113.19 41.74 113.31 41.71 113.42 41.66 113.53 41.59 113.63 41.52 113.72 41.43 113.79 41.33 113.85 41.23 113.89 41.11 113.91 41 113.92 40.88 113.91 40.77 113.89 40.65 113.85 40.54 113.79 40.43 113.72 40.33 113.63 40.25 113.53 40.17 113.42 40.11 113.31 40.06 113.19 40.02 113.06 40.01 112.93 40 107.77 40 107.77 36.32 112.55 36.32 112.74 36.29 112.91 36.24 113.07 36.16 113.21 36.05 113.32 35.92 113.41 35.77 113.46 35.6 113.48 35.43 113.46 35.26 113.41 35.1 113.32 34.95 113.21 34.82 113.07 34.71 112.91 34.63 112.74 34.57 112.55 34.55 107.77 34.55 107.77 32.58"/><polygon class="cls-1" points="133.14 32.03 132.97 32.01 132.8 32.01 132.63 32.03 132.47 32.09 132.33 32.18 132.21 32.28 132.11 32.41 132.03 32.56 131.99 32.71 131.98 32.87 131.99 33.02 132.05 33.17 132.13 33.31 132.23 33.43 132.36 33.53 132.51 33.61 135.42 34.63 135.59 34.67 135.76 34.68 135.93 34.66 136.08 34.62 136.23 34.54 136.36 34.45 136.47 34.33 136.56 34.19 136.61 34.03 136.64 33.88 136.63 33.72 136.59 33.58 136.52 33.44 136.43 33.31 136.31 33.2 136.15 33.11 133.14 32.03"/><polygon class="cls-1" points="118.49 40.19 118.28 40.21 118.08 40.26 117.9 40.35 117.75 40.47 117.62 40.61 117.53 40.78 117.47 40.95 117.44 41.15 117.47 41.34 117.53 41.52 117.62 41.69 117.75 41.83 117.9 41.94 118.08 42.03 118.28 42.09 118.49 42.11 122.21 42.11 122.21 48.91 121.67 49.02 121.14 49.13 120.61 49.23 120.07 49.33 119.54 49.42 119 49.51 118.46 49.6 117.93 49.7 117.73 49.75 117.55 49.84 117.4 49.97 117.27 50.11 117.17 50.28 117.11 50.46 117.08 50.65 117.09 50.84 117.15 51.03 117.23 51.21 117.35 51.37 117.5 51.5 117.66 51.61 117.86 51.68 118.05 51.72 118.27 51.71 119.76 51.47 121.24 51.19 122.72 50.88 124.18 50.54 125.64 50.16 127.09 49.75 128.53 49.31 129.96 48.85 130.15 48.76 130.31 48.65 130.46 48.51 130.56 48.35 130.63 48.17 130.67 47.99 130.67 47.8 130.62 47.6 130.53 47.42 130.42 47.26 130.28 47.13 130.1 47.02 129.92 46.94 129.72 46.9 129.51 46.9 129.3 46.94 128.68 47.13 128.06 47.33 127.44 47.52 126.82 47.7 126.2 47.89 125.57 48.07 124.94 48.24 124.32 48.41 124.32 42.11 128.05 42.11 128.26 42.09 128.46 42.03 128.63 41.95 128.78 41.84 128.92 41.7 129.01 41.54 129.08 41.36 129.1 41.17 129.09 40.98 129.04 40.8 128.94 40.64 128.82 40.5 128.68 40.37 128.5 40.28 128.31 40.22 128.11 40.19 118.49 40.19"/><path class="cls-1" d="M117.94,35.24l-.2,0-.18.06-.15.1-.14.12-.12.13-.08.16L117,36l0,.18,0,.18.06.17.08.16.12.14.14.12.15.09.18.07.2,0h11.42a36.46,36.46,0,0,0,5,14.69,2,2,0,0,0,3.28.1c.71-.89,1.22-3.58,1.17-5.51a1,1,0,1,0-2,0,12.63,12.63,0,0,1-.61,3.87.45.45,0,0,1-.51,0l0,0,0,0-.84-1.54a40.88,40.88,0,0,1-3.4-11.52H138l.2,0,.18-.07.16-.09.13-.13.12-.13.08-.16,0-.17,0-.18,0-.18,0-.17-.08-.15-.12-.14-.13-.12-.16-.1-.18-.06-.2,0h-6.87l0-.34,0-.35,0-.34,0-.35,0-.35,0-.34,0-.35,0-.34,0-.17-.07-.16-.09-.14-.13-.12-.15-.1-.16-.07-.19,0-.19,0-.19,0-.18.05-.17.07-.15.1-.12.12-.1.14-.06.16,0,.17v.69l0,.34,0,.35,0,.34,0,.34,0,.35,0,.34Z"/><polygon class="cls-1" points="147.5 38.71 147.31 38.73 147.15 38.79 146.99 38.87 146.86 38.98 146.75 39.1 146.67 39.24 146.62 39.4 146.6 39.56 146.62 39.73 146.67 39.89 146.75 40.03 146.86 40.16 146.99 40.27 147.15 40.34 147.31 40.4 147.5 40.43 158.59 40.43 158.78 40.4 158.95 40.35 159.11 40.27 159.24 40.17 159.34 40.04 159.43 39.89 159.49 39.73 159.5 39.56 159.49 39.4 159.43 39.24 159.34 39.09 159.24 38.97 159.11 38.86 158.95 38.79 158.78 38.73 158.59 38.71 147.5 38.71"/><path class="cls-1" d="M152.12,32.17l-1.1,1-1.14.91-1.19.87-1.22.82-1.27.76-1.31.71-1.34.66-1.37.59-.17.09-.14.11-.11.14-.09.15,0,.17,0,.17,0,.16.06.18.09.15.12.14L142,40l.16.09.18.05.18,0h.19l.19,0A32.44,32.44,0,0,0,151.55,35l1.06-1,0,0,.05,0,.06,0,.06,0,.06,0h.32l.07,0,.05,0,.06,0,.06,0,.05,0,.05,0,1.07.91a36.77,36.77,0,0,0,8.59,5l.18,0h.19l.18,0,.18,0,.16-.1.15-.11.12-.14.09-.16.06-.18,0-.17,0-.18,0-.16-.09-.16-.11-.14-.14-.11-.17-.09-1.37-.56L161.26,37,160,36.33l-1.27-.73-1.23-.78L156.27,34l-1.15-.89-1.1-.94-.21-.16-.23-.1-.25-.07-.26,0-.26,0-.25.07-.23.12Z"/><polygon class="cls-1" points="142.88 42.6 142.74 42.6 142.62 42.62 142.5 42.65 142.38 42.71 142.27 42.77 142.18 42.84 142.09 42.93 142.02 43.03 141.96 43.14 141.92 43.25 141.89 43.36 141.89 43.48 141.89 43.59 141.92 43.71 141.96 43.82 142.02 43.93 142.09 44.02 142.18 44.11 142.27 44.19 142.38 44.25 142.5 44.3 142.62 44.34 142.74 44.36 142.88 44.36 148.98 44.36 148.63 45.13 148.26 45.88 147.84 46.62 147.41 47.34 146.94 48.04 146.44 48.73 145.92 49.41 145.36 50.06 142.99 50.24 142.79 50.3 142.6 50.38 142.46 50.49 142.33 50.63 142.24 50.78 142.17 50.95 142.15 51.13 142.16 51.32 142.22 51.5 142.3 51.67 142.42 51.81 142.58 51.92 142.74 52.01 142.93 52.07 143.13 52.09 143.33 52.08 160.85 50.51 161.03 50.71 161.2 50.92 161.37 51.13 161.54 51.34 161.7 51.55 161.86 51.76 162.02 51.98 162.18 52.19 162.31 52.34 162.47 52.45 162.65 52.52 162.83 52.57 163.03 52.58 163.22 52.55 163.41 52.49 163.59 52.4 163.74 52.28 163.87 52.14 163.96 51.98 164.01 51.81 164.03 51.63 164.01 51.45 163.94 51.28 163.85 51.12 163.26 50.37 162.65 49.64 162.02 48.92 161.38 48.21 160.72 47.52 160.04 46.83 159.34 46.17 158.64 45.52 158.5 45.41 158.34 45.34 158.16 45.29 157.98 45.28 157.81 45.29 157.63 45.34 157.47 45.41 157.31 45.51 157.18 45.64 157.08 45.78 157 45.93 156.95 46.1 156.94 46.26 156.97 46.43 157.03 46.58 157.13 46.71 157.42 46.99 157.71 47.27 158 47.55 158.3 47.82 158.59 48.09 158.88 48.36 159.16 48.64 159.44 48.93 148.03 49.84 148.48 49.2 148.92 48.53 149.33 47.86 149.73 47.18 150.11 46.49 150.47 45.79 150.8 45.08 151.12 44.36 163.27 44.36 163.4 44.36 163.53 44.34 163.65 44.3 163.76 44.25 163.87 44.19 163.97 44.11 164.06 44.02 164.13 43.93 164.19 43.82 164.22 43.71 164.25 43.59 164.26 43.48 164.25 43.36 164.22 43.25 164.19 43.14 164.13 43.03 164.06 42.93 163.97 42.84 163.87 42.77 163.76 42.71 163.65 42.65 163.53 42.62 163.4 42.6 163.27 42.6 142.88 42.6"/><path class="cls-1" d="M173,35.75V32.89l0-.13-.05-.12-.06-.12-.07-.11-.1-.1-.1-.09-.12-.07-.13-.06-.13,0-.15,0h-.27l-.15,0-.13,0-.13.06-.12.07-.11.09-.09.1-.08.11-.05.12,0,.12,0,.13v2.86h-2.93l-.12,0-.11,0-.12.05-.1,0-.09.08-.09.08-.07.09-.06.1,0,.11,0,.11v.22l0,.11,0,.11.06.1.07.1.09.08.09.07.1.06.12,0,.11,0h.34l6.16,0,0,0h0l0,0,0,0,0,0,0,0,0,0,0,0,0,0v.13l0,.17c-1.46,3-4.52,5.22-7.7,6.61l-.16.1-.15.13-.11.15-.09.17,0,.17v.18l0,.19.07.18.1.17.13.14.16.11.17.09.19.06.2,0,.2,0,.19-.05.42-.17.4-.18.39-.2.4-.2.38-.22.37-.23.36-.24.37-.25v6.77l0,.19.08.17.1.16.13.14.16.11.17.08.2.05.2,0,.21,0,.2-.05.18-.08.15-.11.13-.14.1-.16.08-.17,0-.19V43a47.35,47.35,0,0,1,4,3.26c.69.78,2-.2,1.38-1.13a30.57,30.57,0,0,0-4.18-3.38A11,11,0,0,0,177,37.44l.05-.14V37l0-.15,0-.14-.07-.14-.06-.13-.1-.13-.09-.12-.11-.1-.13-.09-.13-.08-.14-.07-.15,0-.16,0-.16,0Z"/><polygon class="cls-1" points="184.06 35.43 184.06 32.65 184.05 32.53 184.03 32.41 183.99 32.3 183.93 32.19 183.85 32.08 183.77 32 183.67 31.91 183.56 31.85 183.44 31.79 183.31 31.75 183.18 31.73 183.05 31.72 182.92 31.73 182.78 31.75 182.66 31.79 182.54 31.85 182.43 31.91 182.33 32 182.24 32.08 182.17 32.19 182.11 32.3 182.06 32.41 182.04 32.53 182.03 32.65 182.03 35.43 178.73 35.43 178.56 35.45 178.39 35.5 178.23 35.57 178.1 35.68 177.99 35.8 177.91 35.94 177.86 36.1 177.84 36.26 177.86 36.43 177.91 36.58 177.99 36.72 178.1 36.85 178.23 36.95 178.39 37.03 178.56 37.08 178.73 37.09 182.03 37.09 182.03 49.86 177.09 49.86 176.88 49.88 176.7 49.94 176.53 50.02 176.39 50.13 176.27 50.27 176.18 50.42 176.12 50.59 176.1 50.77 176.12 50.95 176.18 51.12 176.27 51.28 176.39 51.41 176.53 51.53 176.7 51.61 176.88 51.66 177.09 51.68 189.07 51.68 189.26 51.66 189.44 51.59 189.6 51.51 189.74 51.39 189.86 51.25 189.94 51.1 190 50.93 190.01 50.75 189.98 50.57 189.92 50.4 189.83 50.25 189.71 50.12 189.56 50.01 189.4 49.93 189.21 49.88 189.01 49.86 184.06 49.86 184.06 37.09 187.86 37.09 187.98 37.09 188.1 37.07 188.21 37.04 188.31 36.99 188.42 36.93 188.51 36.86 188.59 36.77 188.66 36.68 188.71 36.58 188.75 36.48 188.78 36.37 188.79 36.26 188.78 36.15 188.75 36.05 188.71 35.94 188.66 35.84 188.59 35.75 188.51 35.67 188.42 35.59 188.31 35.54 188.21 35.49 188.1 35.45 187.98 35.43 187.86 35.43 184.06 35.43"/><path class="cls-2" d="M17.69,49.53V14.83l23,.12L26,0H0L0,32.27S17.69,49.68,17.69,49.53Z"/><path class="cls-3" d="M18.24,50.48l17.26,16,20.29.12C67,64.85,73.07,51,66,41.12L49.63,23.54c8.29,11.13.49,26-13,27Z"/><path d="M64.43,70.83h-7.9a3.09,3.09,0,0,0-3.24,2.47v6.24a2.92,2.92,0,0,0,3.24,2.66h7.9a3.09,3.09,0,0,0,3.28-2.58V73.27A3.26,3.26,0,0,0,64.43,70.83Zm0,8.17a.64.64,0,0,1-.66.58H57.23a.75.75,0,0,1-.69-.56V74a.56.56,0,0,1,.62-.66h6.76a.71.71,0,0,1,.53.65Z"/><path d="M49.22,75.31h-6a1,1,0,0,1,0-2h9.06V70.82H41.89a3.42,3.42,0,0,0,0,6.82h6.42a1,1,0,0,1,.08,2h-9.6v2.64H49.32C53.75,82,53.64,75.41,49.22,75.31Z"/><polygon points="34.18 73.27 37.91 73.27 37.92 70.78 34.18 70.76 34.18 73.27"/><path d="M29.89,70.76H18.43l0,2.54H28.49a.88.88,0,0,1,.85.88V79.6H22.56c-1.19,0-1.19-1.76.05-2l6-.06V75.41l-7.26-.1c-4.43.31-4.43,6.79,0,6.92H33.16V73.76A3.39,3.39,0,0,0,29.89,70.76Z"/><path d="M14.52,70.78l-13.85,0,0,11.45h4V73.29h8.32a.67.67,0,0,1,.69.81v4.8a.66.66,0,0,1-.76.69H5.79v2.62h8.49a3.6,3.6,0,0,0,3.2-2.81V73.61A3,3,0,0,0,14.52,70.78Z"/><path class="cls-4" d="M318.92,25.11H307.19l5.07-2.55a2.37,2.37,0,0,1,1.72,0Z"/><polygon class="cls-4" points="327.2 34.27 327.2 36.58 300.19 36.6 300.19 34.27 327.2 34.27"/><rect class="cls-4" x="300.19" y="40.16" width="27.01" height="1.94"/><rect class="cls-4" x="309.67" y="52.48" width="17.25" height="6.58"/></g></svg>